<?xml version="1.0" encoding="UTF-8"?>
<svg xmlns="http://www.w3.org/2000/svg" xmlns:xlink="http://www.w3.org/1999/xlink" width="480pt" height="480pt" viewBox="0 0 480 480" version="1.1">
<g id="surface1">
<path style=" stroke:none;fill-rule:nonzero;fill:#000000;fill-opacity:1;" d="M 205.261719 47.367188 C 201.070313 47.308594 196.9375 48.972656 193.976563 51.933594 C 190.953125 54.894531 189.289063 58.902344 189.226563 63.15625 L 94.738281 63.15625 C 89.0625 63.097656 83.757813 66.058594 80.859375 70.992188 C 78.023438 75.925781 78.023438 81.96875 80.859375 86.902344 C 83.757813 91.839844 89.0625 94.796875 94.738281 94.738281 L 378.949219 94.738281 C 384.621094 94.796875 389.925781 91.839844 392.824219 86.902344 C 395.660156 81.96875 395.660156 75.925781 392.824219 70.992188 C 389.925781 66.058594 384.621094 63.097656 378.949219 63.15625 L 284.457031 63.15625 C 284.394531 58.902344 282.730469 54.894531 279.707031 51.933594 C 276.746094 48.972656 272.613281 47.308594 268.421875 47.367188 Z M 94.738281 126.316406 L 94.738281 378.949219 C 94.738281 396.402344 108.859375 410.527344 126.316406 410.527344 L 347.367188 410.527344 C 364.824219 410.527344 378.949219 396.402344 378.949219 378.949219 L 378.949219 126.316406 Z "/>
</g>
</svg>
