<?xml version="1.0" encoding="UTF-8"?>
<svg xmlns="http://www.w3.org/2000/svg" xmlns:xlink="http://www.w3.org/1999/xlink" width="30pt" height="30pt" viewBox="0 0 30 30" version="1.1">
<g id="surface1">
<path style=" stroke:none;fill-rule:nonzero;fill:#000000;fill-opacity:1;" d="M 12.828125 2.960938 C 12.566406 2.957031 12.308594 3.0625 12.125 3.246094 C 11.933594 3.429688 11.832031 3.679688 11.828125 3.949219 L 5.921875 3.949219 C 5.566406 3.945313 5.234375 4.128906 5.054688 4.4375 C 4.875 4.746094 4.875 5.125 5.054688 5.429688 C 5.234375 5.738281 5.566406 5.925781 5.921875 5.921875 L 23.683594 5.921875 C 24.039063 5.925781 24.371094 5.738281 24.550781 5.429688 C 24.730469 5.125 24.730469 4.746094 24.550781 4.4375 C 24.371094 4.128906 24.039063 3.945313 23.683594 3.949219 L 17.777344 3.949219 C 17.773438 3.679688 17.671875 3.429688 17.480469 3.246094 C 17.296875 3.0625 17.039063 2.957031 16.777344 2.960938 Z M 5.921875 7.894531 L 5.921875 23.683594 C 5.921875 24.773438 6.804688 25.65625 7.894531 25.65625 L 21.710938 25.65625 C 22.800781 25.65625 23.683594 24.773438 23.683594 23.683594 L 23.683594 7.894531 Z "/>
</g>
</svg>
